<mxfile host="app.diagrams.net" modified="2023-04-21T04:09:25.731Z" agent="Mozilla/5.0 (Windows NT 10.0; Win64; x64) AppleWebKit/537.36 (KHTML, like Gecko) Chrome/112.0.0.0 Safari/537.36" version="21.2.1" etag="x_XbIaSyQyf9RzyT7fz0" type="github">
  <diagram name="페이지-1" id="Gapu2ZFnI-tlGpOdRR2Q">
    <mxGraphModel>
      <root>
        <mxCell id="0" />
        <mxCell id="1" parent="0" />
      </root>
    </mxGraphModel>
  </diagram>
</mxfile>
